<?xml version="1.0" encoding="utf-8"?>
<!-- Generator: Adobe Illustrator 16.0.0, SVG Export Plug-In . SVG Version: 6.00 Build 0)  -->
<!DOCTYPE svg PUBLIC "-//W3C//DTD SVG 1.1//EN" "http://www.w3.org/Graphics/SVG/1.1/DTD/svg11.dtd">
<svg version="1.1" id="Layer_1" xmlns="http://www.w3.org/2000/svg" xmlns:xlink="http://www.w3.org/1999/xlink" x="0px" y="0px"
	 width="103.652px" height="103.652px" viewBox="0 0 103.652 103.652" enable-background="new 0 0 103.652 103.652"
	 xml:space="preserve">
<path fill="#F26522" d="M82.451,29.893c-5.445,0-10.393,2.133-14.141,5.608c2.941-3.736,4.71-8.488,4.71-13.671
	c0-12.011-9.468-21.747-21.149-21.747c-11.682,0-21.15,9.736-21.15,21.747c0,5.341,1.879,10.226,4.985,14.011
	c-3.787-3.678-8.881-5.949-14.503-5.949c-11.681,0-21.15,9.735-21.15,21.747c0,12.011,9.469,21.747,21.15,21.747
	c6.044,0,11.48-2.62,15.334-6.798c0.044,0.047,0.083,0.097,0.128,0.144c-3.673,3.912-5.943,9.224-5.943,15.091
	c0,12.013,9.468,21.747,21.15,21.747c11.681,0,21.149-9.734,21.149-21.747c0-5.867-2.27-11.179-5.942-15.091
	c0.029-0.03,0.055-0.063,0.082-0.093c3.851,4.149,9.271,6.747,15.291,6.747c11.682,0,21.148-9.735,21.148-21.746
	S94.133,29.893,82.451,29.893z"/>
</svg>
