<?xml version="1.0" encoding="utf-8"?>
<!-- Generator: Adobe Illustrator 16.0.0, SVG Export Plug-In . SVG Version: 6.00 Build 0)  -->
<!DOCTYPE svg PUBLIC "-//W3C//DTD SVG 1.1//EN" "http://www.w3.org/Graphics/SVG/1.1/DTD/svg11.dtd">
<svg version="1.1" id="Layer_1" xmlns="http://www.w3.org/2000/svg" xmlns:xlink="http://www.w3.org/1999/xlink" x="0px" y="0px"
	 width="103.652px" height="103.652px" viewBox="0 0 103.652 103.652" enable-background="new 0 0 103.652 103.652"
	 xml:space="preserve">
<path fill="#FFFFFF" d="M82.451,29.893c-5.445,0-10.393,2.133-14.141,5.607c2.94-3.735,4.71-8.487,4.71-13.671
	c0-12.011-9.468-21.747-21.149-21.747S30.721,9.819,30.721,21.83c0,5.341,1.879,10.227,4.984,14.011
	c-3.787-3.678-8.881-5.948-14.503-5.948c-11.681,0-21.149,9.734-21.149,21.747c0,12.011,9.469,21.746,21.149,21.746
	c6.044,0,11.48-2.619,15.334-6.798c0.044,0.047,0.083,0.098,0.128,0.145c-3.673,3.912-5.942,9.224-5.942,15.091
	c0,12.013,9.468,21.747,21.149,21.747s21.149-9.734,21.149-21.747c0-5.867-2.271-11.179-5.942-15.091
	c0.029-0.03,0.055-0.063,0.082-0.093c3.852,4.148,9.271,6.746,15.291,6.746c11.682,0,21.148-9.734,21.148-21.745
	C103.6,39.629,94.133,29.893,82.451,29.893z"/>
</svg>
